<svg xmlns="http://www.w3.org/2000/svg" xmlns:xlink="http://www.w3.org/1999/xlink" fill="none" version="1.1" width="16" height="16" viewBox="0 0 16 16"><defs><clipPath id="master_svg0_3596_45588"><rect x="0" y="0" width="16" height="16" rx="0"/></clipPath></defs><g clip-path="url(#master_svg0_3596_45588)"><g><g transform="matrix(1,0,0,-1,0,13.199912071228027)"><path d="M7.599959999999999,7.483839035614014L10.75797,10.641856035614014Q10.845880000000001,10.729766035614013,10.96073,10.777336035614013Q11.07559,10.824916035614013,11.19991,10.824916035614013Q11.26147,10.824916035614013,11.32184,10.812906035614013Q11.38222,10.800896035614013,11.43909,10.777336035614013Q11.49596,10.753776035614013,11.547139999999999,10.719576035614015Q11.598320000000001,10.685376035614013,11.64185,10.641856035614014Q11.68538,10.598326035614013,11.71958,10.547146035614013Q11.753779999999999,10.495956035614014,11.777339999999999,10.439086035614014Q11.800889999999999,10.382216035614015,11.812899999999999,10.321846035614014Q11.82491,10.261466035614013,11.82491,10.199916035614013Q11.82491,10.075596035614014,11.777339999999999,9.960736035614014Q11.729759999999999,9.845876035614014,11.64185,9.757966035614015L8.0419,6.158014035614014Q7.9983699999999995,6.1144870356140135,7.94719,6.080288035614013Q7.896,6.046088035614014,7.83913,6.022531035614014Q7.78226,5.9989740356140135,7.72189,5.986965035614014Q7.66151,5.974956035614014,7.599959999999999,5.974956035614014Q7.5384,5.974956035614014,7.47802,5.986965035614014Q7.41765,5.9989740356140135,7.36078,6.022531035614014Q7.30391,6.046088035614014,7.25272,6.080288035614013Q7.20154,6.1144870356140135,7.15801,6.158014035614014L3.558058,9.757966035614015Q3.470151,9.845876035614014,3.422575,9.960736035614014Q3.375,10.075596035614014,3.375,10.199916035614013Q3.375,10.261466035614013,3.387009,10.321846035614014Q3.399018,10.382216035614015,3.422575,10.439086035614014Q3.446132,10.495956035614014,3.4803319999999998,10.547146035614013Q3.514531,10.598326035614013,3.558058,10.641856035614014Q3.601586,10.685376035614013,3.652769,10.719576035614015Q3.703952,10.753776035614013,3.760823,10.777336035614013Q3.817694,10.800896035614013,3.878069,10.812906035614013Q3.9384429,10.824916035614013,4,10.824916035614013Q4.12432,10.824916035614013,4.239177,10.777336035614013Q4.354034,10.729766035614013,4.441942,10.641856035614014L7.599959999999999,7.483839035614014Z" fill-rule="evenodd" fill="#8BCF70" fill-opacity="1"/></g><g transform="matrix(1,0,0,-1,0,25.999961853027344)"><path d="M3.558058,13.441922926513671Q3.470151,13.354014926513672,3.422575,13.239157926513672Q3.375,13.124300926513673,3.375,12.999980926513672Q3.375,12.938423826513672,3.387009,12.878049926513672Q3.399018,12.817674926513671,3.422575,12.760803926513672Q3.446132,12.703932926513671,3.4803319999999998,12.652749926513671Q3.514531,12.601566926513671,3.558058,12.558038926513673Q3.601586,12.514511926513672,3.652769,12.480312926513673Q3.703952,12.446112926513672,3.760823,12.422555926513672Q3.817694,12.398998926513672,3.878069,12.386989926513673Q3.9384429,12.374980926513672,4,12.374980926513672Q4.12432,12.374980926513672,4.239177,12.422555926513672Q4.354034,12.470131926513671,4.441942,12.558038926513673L7.599959999999999,15.716050926513672L10.75797,12.558038926513673Q10.845880000000001,12.470131926513671,10.96073,12.422555926513672Q11.07559,12.374980926513672,11.19991,12.374980926513672Q11.26147,12.374980926513672,11.32184,12.386989926513673Q11.38222,12.398998926513672,11.43909,12.422555926513672Q11.49596,12.446112926513672,11.547139999999999,12.480312926513673Q11.598320000000001,12.514511926513672,11.64185,12.558038926513673Q11.68538,12.601566926513671,11.71958,12.652749926513671Q11.753779999999999,12.703932926513671,11.777339999999999,12.760803926513672Q11.800889999999999,12.817674926513671,11.812899999999999,12.878049926513672Q11.82491,12.938423826513672,11.82491,12.999980926513672Q11.82491,13.124300926513673,11.777339999999999,13.239157926513672Q11.729759999999999,13.354014926513672,11.64185,13.441922926513671L8.0419,17.04188092651367Q7.9983699999999995,17.08540092651367,7.94719,17.119600926513673Q7.896,17.15380092651367,7.83913,17.17736092651367Q7.78226,17.20092092651367,7.72189,17.21293092651367Q7.66151,17.22494092651367,7.599959999999999,17.22494092651367Q7.5384,17.22494092651367,7.47802,17.21293092651367Q7.41765,17.20092092651367,7.36078,17.17736092651367Q7.30391,17.15380092651367,7.25272,17.119600926513673Q7.20154,17.08540092651367,7.15801,17.04188092651367L3.558058,13.441922926513671Z" fill-rule="evenodd" fill="#8BCF70" fill-opacity="1"/></g></g></g></svg>