<svg xmlns="http://www.w3.org/2000/svg" xmlns:xlink="http://www.w3.org/1999/xlink" fill="none" version="1.1" width="16" height="16" viewBox="0 0 16 16"><defs><clipPath id="master_svg0_3596_45629"><rect x="0" y="0" width="16" height="16" rx="0"/></clipPath></defs><g clip-path="url(#master_svg0_3596_45629)"><g><g><path d="M7.599959999999999,2.883883L10.75797,6.0419Q10.845880000000001,6.12981,10.96073,6.17738Q11.07559,6.22496,11.19991,6.22496Q11.26147,6.22496,11.32184,6.21295Q11.38222,6.20094,11.43909,6.17738Q11.49596,6.15382,11.547139999999999,6.11962Q11.598320000000001,6.08542,11.64185,6.0419Q11.68538,5.9983699999999995,11.71958,5.94719Q11.753779999999999,5.896,11.777339999999999,5.83913Q11.800889999999999,5.78226,11.812899999999999,5.72189Q11.82491,5.66151,11.82491,5.599959999999999Q11.82491,5.47564,11.777339999999999,5.36078Q11.729759999999999,5.24592,11.64185,5.15801L8.0419,1.558058Q7.9983699999999995,1.514531,7.94719,1.480332Q7.896,1.446132,7.83913,1.4225750000000001Q7.78226,1.3990179999999999,7.72189,1.387009Q7.66151,1.375,7.599959999999999,1.375Q7.5384,1.375,7.47802,1.387009Q7.41765,1.3990179999999999,7.36078,1.4225750000000001Q7.30391,1.446132,7.25272,1.480332Q7.20154,1.514531,7.15801,1.558058L3.558058,5.15801Q3.470151,5.24592,3.422575,5.36078Q3.375,5.47564,3.375,5.599959999999999Q3.375,5.66151,3.387009,5.72189Q3.399018,5.78226,3.422575,5.83913Q3.446132,5.896,3.4803319999999998,5.94719Q3.514531,5.9983699999999995,3.558058,6.0419Q3.601586,6.08542,3.652769,6.11962Q3.703952,6.15382,3.760823,6.17738Q3.817694,6.20094,3.878069,6.21295Q3.9384429,6.22496,4,6.22496Q4.12432,6.22496,4.239177,6.17738Q4.354034,6.12981,4.441942,6.0419L7.599959999999999,2.883883Z" fill-rule="evenodd" fill="#8BCF70" fill-opacity="1"/></g><g><path d="M3.558058,10.841985487548827Q3.470151,10.754077487548829,3.422575,10.639220487548828Q3.375,10.524363487548829,3.375,10.400043487548828Q3.375,10.338486387548828,3.387009,10.278112487548828Q3.399018,10.217737487548828,3.422575,10.160866487548828Q3.446132,10.103995487548827,3.4803319999999998,10.052812487548827Q3.514531,10.001629487548827,3.558058,9.958101487548829Q3.601586,9.914574487548828,3.652769,9.880375487548829Q3.703952,9.846175487548829,3.760823,9.822618487548828Q3.817694,9.799061487548828,3.878069,9.787052487548829Q3.9384429,9.775043487548828,4,9.775043487548828Q4.12432,9.775043487548828,4.239177,9.822618487548828Q4.354034,9.870194487548828,4.441942,9.958101487548829L7.599959999999999,13.116113487548828L10.75797,9.958101487548829Q10.845880000000001,9.870194487548828,10.96073,9.822618487548828Q11.07559,9.775043487548828,11.19991,9.775043487548828Q11.26147,9.775043487548828,11.32184,9.787052487548829Q11.38222,9.799061487548828,11.43909,9.822618487548828Q11.49596,9.846175487548829,11.547139999999999,9.880375487548829Q11.598320000000001,9.914574487548828,11.64185,9.958101487548829Q11.68538,10.001629487548827,11.71958,10.052812487548827Q11.753779999999999,10.103995487548827,11.777339999999999,10.160866487548828Q11.800889999999999,10.217737487548828,11.812899999999999,10.278112487548828Q11.82491,10.338486387548828,11.82491,10.400043487548828Q11.82491,10.524363487548829,11.777339999999999,10.639220487548828Q11.729759999999999,10.754077487548829,11.64185,10.841985487548827L8.0419,14.441943487548828Q7.9983699999999995,14.485463487548827,7.94719,14.51966348754883Q7.896,14.553863487548828,7.83913,14.577423487548828Q7.78226,14.600983487548827,7.72189,14.612993487548827Q7.66151,14.625003487548828,7.599959999999999,14.625003487548828Q7.5384,14.625003487548828,7.47802,14.612993487548827Q7.41765,14.600983487548827,7.36078,14.577423487548828Q7.30391,14.553863487548828,7.25272,14.51966348754883Q7.20154,14.485463487548827,7.15801,14.441943487548828L3.558058,10.841985487548827Z" fill-rule="evenodd" fill="#8BCF70" fill-opacity="1"/></g></g></g></svg>